<svg xmlns="http://www.w3.org/2000/svg" version="1.1" xmlns:xlink="http://www.w3.org/1999/xlink" xmlns:svgjs="http://svgjs.dev/svgjs" width="1440" height="560" preserveAspectRatio="none" viewBox="0 0 1440 560"><g mask="url(&quot;#SvgjsMask2321&quot;)" fill="none"><rect width="1440" height="560" x="0" y="0" fill="url(&quot;#SvgjsLinearGradient2322&quot;)"></rect><path d="M0 0L183.82 0L0 170.09z" fill="rgba(255, 255, 255, .1)"></path><path d="M0 170.09L183.82 0L417.72 0L0 260.35z" fill="rgba(255, 255, 255, .075)"></path><path d="M0 260.35L417.72 0L582.2 0L0 320.40000000000003z" fill="rgba(255, 255, 255, .05)"></path><path d="M0 320.40000000000003L582.2 0L718.2 0L0 471.64000000000004z" fill="rgba(255, 255, 255, .025)"></path><path d="M1440 560L761.92 560L1440 471.7z" fill="rgba(0, 0, 0, .1)"></path><path d="M1440 471.7L761.92 560L618.76 560L1440 242.35999999999999z" fill="rgba(0, 0, 0, .075)"></path><path d="M1440 242.36L618.76 560L404.59000000000003 560L1440 240.34z" fill="rgba(0, 0, 0, .05)"></path><path d="M1440 240.34000000000003L404.5899999999999 560L193.79999999999993 560L1440 100.56000000000003z" fill="rgba(0, 0, 0, .025)"></path></g><defs><mask id="SvgjsMask2321"><rect width="1440" height="560" fill="#ffffff"></rect></mask><linearGradient x1="84.72%" y1="-39.29%" x2="15.28%" y2="139.29%" gradientUnits="userSpaceOnUse" id="SvgjsLinearGradient2322"><stop stop-color="rgba(242, 242, 242, 1)" offset="1"></stop><stop stop-color="rgba(255, 255, 255, 1)" offset="1"></stop></linearGradient></defs></svg>